<svg width="44" height="48" viewBox="0 0 44 48" fill="none" xmlns="http://www.w3.org/2000/svg">
<path d="M2 36.75V9H35V26.25H36.5V4.5C36.4991 3.70462 36.1827 2.94208 35.6203 2.37967C35.0579 1.81725 34.2954 1.50089 33.5 1.5H3.5C2.70462 1.50089 1.94208 1.81725 1.37967 2.37967C0.817251 2.94208 0.500893 3.70462 0.5 4.5V36.75C0.500893 37.5454 0.817251 38.3079 1.37967 38.8703C1.94208 39.4327 2.70462 39.7491 3.5 39.75H21.5V38.25H3.5C3.10232 38.2495 2.72106 38.0913 2.43986 37.8101C2.15866 37.5289 2.00047 37.1477 2 36.75ZM3.5 3H33.5C33.8977 3.00047 34.2789 3.15866 34.5601 3.43986C34.8413 3.72106 34.9995 4.10232 35 4.5V7.5H2V4.5C2.00047 4.10232 2.15866 3.72106 2.43986 3.43986C2.72106 3.15866 3.10232 3.00047 3.5 3Z" fill="#FF6600"/>
<path d="M3.5 4.5H5V6H3.5V4.5Z" fill="#FF6600"/>
<path d="M6.5 4.5H8V6H6.5V4.5Z" fill="#FF6600"/>
<path d="M9.5 4.5H11V6H9.5V4.5Z" fill="#FF6600"/>
<path d="M40.25 32.25H37.8158L37.0183 29.4589C36.8163 28.7549 36.3642 28.149 35.7468 27.755C35.1294 27.3611 34.3894 27.2063 33.6658 27.3198L22.7484 29.0438C22.3981 29.0989 22.0647 29.232 21.7728 29.4333C21.481 29.6346 21.238 29.899 21.0621 30.2068C20.8861 30.5146 20.7815 30.858 20.7562 31.2117C20.7308 31.5654 20.7852 31.9202 20.9154 32.25H19.25C19.1019 32.25 18.9572 32.2939 18.8339 32.376L16.7729 33.75H15.5V35.25H16.7729L18.8339 36.624C18.9572 36.7061 19.1019 36.75 19.25 36.75H22.6893L24.5126 38.5732C24.5703 39.3306 24.8398 40.0565 25.2903 40.6681C25.7409 41.2797 26.3542 41.7523 27.0605 42.032L28.25 42.5078V46.5H29.75V42C29.75 41.8501 29.7051 41.7037 29.6211 41.5795C29.5371 41.4554 29.4178 41.3593 29.2786 41.3036L27.6176 40.6392C27.1391 40.4497 26.7288 40.1203 26.4403 39.6941C26.1517 39.2679 25.9983 38.7647 26 38.25C26 38.1515 25.9806 38.054 25.9429 37.963C25.9052 37.872 25.85 37.7893 25.7803 37.7197L23.2464 35.1856C23.1288 35.068 23.0487 34.9181 23.0162 34.755C22.9838 34.5919 23.0004 34.4228 23.0641 34.2691C23.1277 34.1155 23.2355 33.9841 23.3738 33.8917C23.5121 33.7993 23.6747 33.75 23.841 33.75H24.1244C24.255 33.7501 24.3837 33.7805 24.5005 33.8388L30.0557 36.6164L32.2197 38.7804L33.2803 37.7197L32.3107 36.75H36.5V46.5H38V36.75H40.25C40.8467 36.75 41.419 36.513 41.841 36.091C42.2629 35.669 42.5 35.0967 42.5 34.5C42.5 33.9033 42.2629 33.331 41.841 32.909C41.419 32.4871 40.8467 32.25 40.25 32.25ZM18.3521 34.5L19.4771 33.75H21.6568C21.472 34.2296 21.4499 34.7567 21.594 35.25H19.4771L18.3521 34.5ZM23.841 32.25H23.1177C22.899 32.2505 22.6881 32.1684 22.5274 32.0201C22.3666 31.8718 22.2678 31.6682 22.2507 31.4502C22.2336 31.2322 22.2995 31.0157 22.4352 30.8442C22.5708 30.6726 22.7663 30.5586 22.9824 30.525L33.8998 28.8012C34.2616 28.7443 34.6317 28.8216 34.9405 29.0185C35.2492 29.2155 35.4752 29.5186 35.576 29.8707L36.2557 32.25H32.3107L33.2803 31.2804L32.2197 30.2197L30.1894 32.25H23.841ZM30.6771 35.25L27.6771 33.75H38V35.25H30.6771ZM40.25 35.25H39.5V33.75H40.25C40.4489 33.75 40.6397 33.829 40.7803 33.9697C40.921 34.1103 41 34.3011 41 34.5C41 34.6989 40.921 34.8897 40.7803 35.0303C40.6397 35.171 40.4489 35.25 40.25 35.25Z" fill="#FF6600"/>
<path d="M17.75 24V12C17.75 11.8011 17.671 11.6103 17.5303 11.4697C17.3897 11.329 17.1989 11.25 17 11.25H5C4.80109 11.25 4.61032 11.329 4.46967 11.4697C4.32902 11.6103 4.25 11.8011 4.25 12V24C4.25 24.1989 4.32902 24.3897 4.46967 24.5303C4.61032 24.671 4.80109 24.75 5 24.75H17C17.1989 24.75 17.3897 24.671 17.5303 24.5303C17.671 24.3897 17.75 24.1989 17.75 24ZM11 20.25C11.5965 20.2507 12.1684 20.488 12.5902 20.9098C13.012 21.3316 13.2493 21.9035 13.25 22.5V23.25H8.75V22.5C8.75069 21.9035 8.98797 21.3316 9.40978 20.9098C9.83158 20.488 10.4035 20.2507 11 20.25ZM9.5 17.25C9.5 16.9533 9.58797 16.6633 9.7528 16.4166C9.91762 16.17 10.1519 15.9777 10.426 15.8642C10.7001 15.7506 11.0017 15.7209 11.2926 15.7788C11.5836 15.8367 11.8509 15.9796 12.0607 16.1893C12.2704 16.3991 12.4133 16.6664 12.4712 16.9574C12.5291 17.2483 12.4994 17.5499 12.3858 17.824C12.2723 18.0981 12.08 18.3324 11.8334 18.4972C11.5867 18.662 11.2967 18.75 11 18.75C10.6023 18.7495 10.2211 18.5913 9.93986 18.3101C9.65866 18.0289 9.50047 17.6477 9.5 17.25ZM16.25 23.25H14.75V22.5C14.7498 21.8863 14.599 21.2821 14.3108 20.7403C14.0226 20.1985 13.6058 19.7357 13.097 19.3926C13.5234 18.9758 13.8159 18.4414 13.9372 17.8576C14.0586 17.2738 14.0032 16.6671 13.7781 16.115C13.5531 15.5628 13.1686 15.0902 12.6738 14.7575C12.179 14.4249 11.5963 14.2472 11 14.2472C10.4037 14.2472 9.82101 14.4249 9.32619 14.7575C8.83136 15.0902 8.4469 15.5628 8.22186 16.115C7.99683 16.6671 7.94144 17.2738 8.06276 17.8576C8.18407 18.4414 8.4766 18.9758 8.903 19.3926C8.39421 19.7357 7.97742 20.1985 7.68921 20.7403C7.401 21.2821 7.25019 21.8863 7.25 22.5V23.25H5.75V12.75H16.25V23.25Z" fill="#FF6600"/>
<path d="M8 26.25H17V27.75H8V26.25Z" fill="#FF6600"/>
<path d="M5 26.25H6.5V27.75H5V26.25Z" fill="#FF6600"/>
<path d="M23.75 12.75H32.75V14.25H23.75V12.75Z" fill="#FF6600"/>
<path d="M20.75 15.75H32.75V17.25H20.75V15.75Z" fill="#FF6600"/>
<path d="M20.75 18.75H32.75V20.25H20.75V18.75Z" fill="#FF6600"/>
<path d="M20.75 21.75H32.75V23.25H20.75V21.75Z" fill="#FF6600"/>
<path d="M20.75 12.75H22.25V14.25H20.75V12.75Z" fill="#FF6600"/>
<path d="M38 5.25H39.5V20.25H38V5.25Z" fill="#FF6600"/>
<path d="M38 21.75H39.5V23.25H38V21.75Z" fill="#FF6600"/>
<path d="M4.58852 32.3845L3.55371 34.9715L4.94646 35.5285L5.82621 33.3292L6.2943 34.2655C6.37754 34.432 6.49522 34.5788 6.63954 34.6963C6.78386 34.8138 6.95152 34.8993 7.13139 34.9471C7.31126 34.9948 7.49923 35.0038 7.68283 34.9734C7.86643 34.9429 8.04146 34.8738 8.1963 34.7706L9.40446 33.9651L10.3049 34.8655C10.4265 34.9878 10.5712 35.0847 10.7305 35.1507C10.8898 35.2167 11.0606 35.2504 11.2331 35.2499H14.0001V33.75H11.3107L10.3566 32.7957C10.1417 32.5817 9.85949 32.4486 9.5577 32.4187C9.25592 32.3888 8.95308 32.4641 8.7004 32.6318L7.54071 33.4046L6.98083 32.2849C6.86767 32.0586 6.6915 31.8698 6.47354 31.7413C6.25557 31.6128 6.0051 31.55 5.75229 31.5605C5.49948 31.571 5.2551 31.6544 5.04858 31.8006C4.84205 31.9468 4.68219 32.1496 4.58824 32.3845H4.58852Z" fill="#FF6600"/>
</svg>
