<svg width="45" height="48" viewBox="0 0 45 48" fill="none" xmlns="http://www.w3.org/2000/svg">
<path d="M2.25 40.5V9H39.75V28.5H41.25V4.5C41.2491 3.70462 40.9327 2.94208 40.3703 2.37967C39.8079 1.81725 39.0454 1.50089 38.25 1.5H3.75C2.95462 1.50089 2.19208 1.81725 1.62967 2.37967C1.06725 2.94208 0.750893 3.70462 0.75 4.5V40.5C0.750893 41.2954 1.06725 42.0579 1.62967 42.6203C2.19208 43.1827 2.95462 43.4991 3.75 43.5H28.5V42H3.75C3.35232 41.9995 2.97106 41.8413 2.68986 41.5601C2.40866 41.2789 2.25047 40.8977 2.25 40.5ZM2.25 4.5C2.25047 4.10232 2.40866 3.72106 2.68986 3.43986C2.97106 3.15866 3.35232 3.00047 3.75 3H38.25C38.6477 3.00047 39.0289 3.15866 39.3101 3.43986C39.5913 3.72106 39.7495 4.10232 39.75 4.5V7.5H2.25V4.5Z" fill="#00CFB3"/>
<path d="M3.75 4.5H5.25V6H3.75V4.5Z" fill="#00CFB3"/>
<path d="M6.75 4.5H8.25V6H6.75V4.5Z" fill="#00CFB3"/>
<path d="M9.75 4.5H11.25V6H9.75V4.5Z" fill="#00CFB3"/>
<path d="M4.5 33.75H17.25V35.25H4.5V33.75Z" fill="#00CFB3"/>
<path d="M4.5 36.75H17.25V38.25H4.5V36.75Z" fill="#00CFB3"/>
<path d="M4.5 30.75H17.25V32.25H4.5V30.75Z" fill="#00CFB3"/>
<path d="M9 27.75H17.25V29.25H9V27.75Z" fill="#00CFB3"/>
<path d="M6 27.75H7.5V29.25H6V27.75Z" fill="#00CFB3"/>
<path d="M28.4776 17.4319L29.2276 14.4319C29.2708 14.259 29.2511 14.0763 29.1719 13.9167C29.0927 13.757 28.9592 13.6308 28.7954 13.5606L23.5454 11.3106C23.4076 11.2516 23.2553 11.2352 23.1081 11.2636C22.9609 11.292 22.8256 11.3639 22.7197 11.4699L21 13.1894L19.2803 11.4697C19.1744 11.3636 19.0391 11.2918 18.8919 11.2633C18.7447 11.2349 18.5924 11.2513 18.4546 11.3103L13.2046 13.5603C13.0408 13.6305 12.9073 13.7567 12.8281 13.9164C12.7489 14.0761 12.7292 14.2587 12.7724 14.4316L13.5224 17.4316C13.5706 17.6245 13.6936 17.7904 13.8641 17.8928C14.0346 17.9951 14.2388 18.0255 14.4318 17.9773L16.5 17.4606V24C16.5 24.1989 16.579 24.3897 16.7197 24.5303C16.8603 24.671 17.0511 24.75 17.25 24.75H24.75C24.9489 24.75 25.1397 24.671 25.2803 24.5303C25.421 24.3897 25.5 24.1989 25.5 24V17.4606L27.5681 17.9776C27.7611 18.0258 27.9653 17.9954 28.1359 17.8931C28.3064 17.7907 28.4293 17.6248 28.4776 17.4319ZM24.9319 15.7725C24.8213 15.7449 24.7059 15.7428 24.5944 15.7664C24.4829 15.7901 24.3783 15.8388 24.2885 15.9089C24.1986 15.9791 24.126 16.0687 24.076 16.1712C24.026 16.2736 24 16.386 24 16.5V23.25H18V16.5C18 16.386 17.974 16.2736 17.924 16.1711C17.8741 16.0687 17.8014 15.979 17.7116 15.9089C17.6217 15.8387 17.5171 15.79 17.4056 15.7663C17.2941 15.7427 17.1787 15.7448 17.0681 15.7724L14.7957 16.3405L14.3825 14.6877L18.5787 12.8893L20.4697 14.7803C20.5393 14.85 20.622 14.9052 20.713 14.9429C20.804 14.9806 20.9015 15 21 15C21.0985 15 21.196 14.9806 21.287 14.9429C21.378 14.9052 21.4607 14.85 21.5303 14.7803L23.4213 12.8893L27.6175 14.6877L27.2043 16.3405L24.9319 15.7725Z" fill="#00CFB3"/>
<path d="M6.96968 18.2196L4.71968 20.4696C4.65004 20.5393 4.59479 20.622 4.55709 20.713C4.5194 20.804 4.5 20.9015 4.5 21C4.5 21.0985 4.5194 21.196 4.55709 21.287C4.59479 21.378 4.65004 21.4607 4.71968 21.5303L6.96968 23.7803L8.03037 22.7196L6.31062 21L8.03037 19.2803L6.96968 18.2196Z" fill="#00CFB3"/>
<path d="M31.2804 23.7803L33.5304 21.5303C33.6001 21.4607 33.6553 21.378 33.693 21.287C33.7307 21.196 33.7501 21.0985 33.7501 21C33.7501 20.9015 33.7307 20.804 33.693 20.713C33.6553 20.622 33.6001 20.5393 33.5304 20.4696L31.2804 18.2196L30.2197 19.2803L31.9395 21L30.2197 22.7196L31.2804 23.7803Z" fill="#00CFB3"/>
<path d="M35.0304 23.7803L37.2804 21.5303C37.3501 21.4607 37.4053 21.378 37.443 21.287C37.4807 21.196 37.5001 21.0985 37.5001 21C37.5001 20.9015 37.4807 20.804 37.443 20.713C37.4053 20.622 37.3501 20.5393 37.2804 20.4696L35.0304 18.2196L33.9697 19.2803L35.6895 21L33.9697 22.7196L35.0304 23.7803Z" fill="#00CFB3"/>
<path d="M10.7197 18.2196L8.46968 20.4696C8.40004 20.5393 8.34479 20.622 8.30709 20.713C8.2694 20.804 8.25 20.9015 8.25 21C8.25 21.0985 8.2694 21.196 8.30709 21.287C8.34479 21.378 8.40004 21.4607 8.46968 21.5303L10.7197 23.7803L11.7804 22.7196L10.0606 21L11.7804 19.2803L10.7197 18.2196Z" fill="#00CFB3"/>
<path d="M42.1926 37.6177C42.8166 36.9935 43.2416 36.1984 43.4137 35.3328C43.5858 34.4672 43.4974 33.57 43.1596 32.7546C42.8219 31.9393 42.2499 31.2424 41.5161 30.7521C40.7823 30.2618 39.9196 30 39.037 30H35.9995V27C35.9995 26.4033 35.7625 25.831 35.3405 25.409C34.9186 24.9871 34.3463 24.75 33.7495 24.75C33.1528 24.75 32.5805 24.9871 32.1585 25.409C31.7366 25.831 31.4995 26.4033 31.4995 27V32.7024C31.0368 32.3162 30.4429 32.1233 29.8415 32.1639C29.2402 32.2046 28.6776 32.4756 28.271 32.9205C27.8645 33.3655 27.6452 33.9501 27.6588 34.5527C27.6724 35.1553 27.918 35.7294 28.3443 36.1555L31.4995 39.3106V40.5H30.7495C30.5506 40.5 30.3598 40.579 30.2192 40.7197C30.0785 40.8603 29.9995 41.0511 29.9995 41.25V48H31.4995V42H40.4995V48H41.9995V41.25C41.9995 41.0511 41.9205 40.8603 41.7799 40.7197C41.6392 40.579 41.4484 40.5 41.2495 40.5H40.4995V39.3106L42.1926 37.6177ZM39.2192 38.4697C39.1495 38.5393 39.0943 38.622 39.0566 38.713C39.0189 38.804 38.9995 38.9015 38.9995 39V40.5H32.9995V39C32.9995 38.9015 32.9801 38.804 32.9424 38.713C32.9047 38.622 32.8494 38.5393 32.7798 38.4697L29.4048 35.0947C29.3267 35.0166 29.2647 34.9238 29.2224 34.8218C29.1802 34.7198 29.1584 34.6104 29.1584 34.4999C29.1584 34.3895 29.1802 34.2801 29.2224 34.1781C29.2647 34.076 29.3266 33.9833 29.4047 33.9052C29.4828 33.8271 29.5755 33.7651 29.6776 33.7229C29.7796 33.6806 29.889 33.6588 29.9994 33.6588C30.1099 33.6588 30.2193 33.6806 30.3213 33.7228C30.4234 33.7651 30.5161 33.8271 30.5942 33.9052L31.7192 35.0302C31.8241 35.135 31.9577 35.2065 32.1032 35.2354C32.2486 35.2644 32.3994 35.2495 32.5365 35.1928C32.6735 35.136 32.7906 35.0399 32.8731 34.9166C32.9555 34.7933 32.9995 34.6483 32.9995 34.5V27C32.9995 26.8011 33.0785 26.6103 33.2192 26.4697C33.3598 26.329 33.5506 26.25 33.7495 26.25C33.9484 26.25 34.1392 26.329 34.2799 26.4697C34.4205 26.6103 34.4995 26.8011 34.4995 27V30.75C34.4995 30.9489 34.5785 31.1397 34.7192 31.2803C34.8598 31.421 35.0506 31.5 35.2495 31.5H39.037C39.6228 31.5001 40.1955 31.6739 40.6826 31.9994C41.1696 32.3249 41.5492 32.7876 41.7734 33.3288C41.9976 33.87 42.0563 34.4656 41.9421 35.0401C41.8279 35.6147 41.5458 36.1425 41.1317 36.5569L39.2192 38.4697Z" fill="#00CFB3"/>
<path d="M37.5 43.5H39V45H37.5V43.5Z" fill="#00CFB3"/>
<path d="M36.75 10.5H38.25V12H36.75V10.5Z" fill="#00CFB3"/>
<path d="M33.75 10.5H35.25V12H33.75V10.5Z" fill="#00CFB3"/>
<path d="M4.5 45H21.75V46.5H4.5V45Z" fill="#00CFB3"/>
<path d="M23.25 45H24.75V46.5H23.25V45Z" fill="#00CFB3"/>
<path d="M19.5 27.75C19.3011 27.75 19.1103 27.829 18.9697 27.9697C18.829 28.1103 18.75 28.3011 18.75 28.5V37.5C18.75 37.6989 18.829 37.8897 18.9697 38.0303C19.1103 38.171 19.3011 38.25 19.5 38.25H25.5C25.6989 38.25 25.8897 38.171 26.0303 38.0303C26.171 37.8897 26.25 37.6989 26.25 37.5V28.5C26.25 28.3011 26.171 28.1103 26.0303 27.9697C25.8897 27.829 25.6989 27.75 25.5 27.75H19.5ZM24.75 36.75H20.25V29.25H24.75V36.75Z" fill="#00CFB3"/>
</svg>
